<svg xmlns="http://www.w3.org/2000/svg" viewBox="0 0 64 80" width="64" height="80">
  <defs>
    <linearGradient id="lc4-stroke" x1="0" y1="0" x2="1" y2="1">
      <stop offset="0" stop-color="#a78bfa"/><stop offset="1" stop-color="#ec4899"/>
    </linearGradient>
  </defs>
  <g fill="none" stroke="url(#lc4-stroke)" stroke-width="2" stroke-linejoin="round" stroke-linecap="round">
    <!-- Bottom cube -->
    <g transform="translate(32 64)">
      <polygon points="0,0 -22,-12 0,-24 22,-12"/>
      <polygon points="0,0 22,-12 22,4 0,16"/>
      <polygon points="0,0 -22,-12 -22,4 0,16"/>
    </g>
    <!-- Middle cube -->
    <g transform="translate(32 44)">
      <polygon points="0,0 -22,-12 0,-24 22,-12"/>
      <polygon points="0,0 22,-12 22,4 0,16"/>
      <polygon points="0,0 -22,-12 -22,4 0,16"/>
    </g>
    <!-- Top cube -->
    <g transform="translate(32 24)">
      <polygon points="0,0 -22,-12 0,-24 22,-12"/>
      <polygon points="0,0 22,-12 22,4 0,16"/>
      <polygon points="0,0 -22,-12 -22,4 0,16"/>
    </g>
  </g>
</svg>
